<?xml version="1.0" ?><!DOCTYPE svg  PUBLIC '-//W3C//DTD SVG 1.1//EN'  'http://www.w3.org/Graphics/SVG/1.1/DTD/svg11.dtd'><svg enable-background="new 0 0 128 128" id="Слой_1" version="1.1" viewBox="0 0 128 128" xml:space="preserve" xmlns="http://www.w3.org/2000/svg" xmlns:xlink="http://www.w3.org/1999/xlink"><g><g><g><path d="M55.8,89.4L55.8,89.4c2.6-3.6,4.2-8.1,4.2-12.9c0-12.2-9.8-22-22-22s-22,9.8-22,22     c0,4.8,1.5,9.3,4.2,12.9l0,0h0c0.1,0.2,0.2,0.3,0.3,0.5L38,113.5l17.5-23.7C55.6,89.7,55.7,89.6,55.8,89.4L55.8,89.4z" fill="#FFFFFF"/><g><path d="M38,116.5L38,116.5c-1,0-1.8-0.5-2.4-1.2L18.1,91.6c-0.1-0.1-0.2-0.3-0.4-0.5c-3.1-4.3-4.7-9.3-4.7-14.6      c0-13.8,11.2-25,25-25s25,11.2,25,25c0,5.3-1.6,10.3-4.7,14.5c0,0-0.1,0.1-0.1,0.1l-0.3,0.4l-17.5,23.7      C39.8,116,39,116.5,38,116.5z M38,57.5c-10.5,0-19,8.5-19,19c0,4,1.2,7.9,3.6,11.1c0.1,0.1,0.2,0.3,0.3,0.4L38,108.5l15.3-20.8      c0,0,0,0,0-0.1c2.4-3.3,3.6-7.1,3.6-11.1C57,66,48.5,57.5,38,57.5z" fill="#454B54"/></g></g><g><path d="M112,116.5h-1c-1.7,0-3-1.3-3-3c0,0,0,0,0-0.1c-0.6-1.2-0.4-2.7,0.6-3.6c1.2-1.1,3.1-1,4.2,0.2l1.4,1.5     c0.8,0.9,1,2.1,0.5,3.2C114.3,115.8,113.2,116.5,112,116.5z M99,116.5h-3c-1.7,0-3-1.3-3-3s1.3-3,3-3h3c1.7,0,3,1.3,3,3     S100.7,116.5,99,116.5z M84,116.5h-3c-1.7,0-3-1.3-3-3s1.3-3,3-3h3c1.7,0,3,1.3,3,3S85.7,116.5,84,116.5z M69,116.5h-3     c-1.7,0-3-1.3-3-3s1.3-3,3-3h3c1.7,0,3,1.3,3,3S70.7,116.5,69,116.5z M54,116.5h-3c-1.7,0-3-1.3-3-3s1.3-3,3-3h3c1.7,0,3,1.3,3,3     S55.7,116.5,54,116.5z M102.5,106.2c-0.8,0-1.6-0.3-2.2-1l-2-2.2c-1.1-1.2-1-3.1,0.2-4.2c1.2-1.1,3.1-1,4.2,0.2l2,2.2     c1.1,1.2,1,3.1-0.2,4.2C104,105.9,103.2,106.2,102.5,106.2z M92.4,95.2c-0.8,0-1.6-0.3-2.2-1l-2-2.2c-1.1-1.2-1-3.1,0.2-4.2     c1.2-1.1,3.1-1,4.2,0.2l2,2.2c1.1,1.2,1,3.1-0.2,4.2C93.8,94.9,93.1,95.2,92.4,95.2z M82.2,84.1c-0.8,0-1.6-0.3-2.2-1L78,81     c-1.1-1.2-1-3.1,0.2-4.2c1.2-1.1,3.1-1,4.2,0.2l2,2.2c1.1,1.2,1,3.1-0.2,4.2C83.7,83.9,82.9,84.1,82.2,84.1z M81.7,72.6     c-0.6,0-1.3-0.2-1.8-0.6c-1.3-1-1.6-2.9-0.6-4.2l1.8-2.4c1-1.3,2.9-1.6,4.2-0.6c1.3,1,1.6,2.9,0.6,4.2l-1.8,2.4     C83.5,72.2,82.6,72.6,81.7,72.6z M90.7,60.6c-0.6,0-1.3-0.2-1.8-0.6c-1.3-1-1.6-2.9-0.6-4.2l1.8-2.4c1-1.3,2.9-1.6,4.2-0.6     c1.3,1,1.6,2.9,0.6,4.2l-1.8,2.4C92.5,60.2,91.6,60.6,90.7,60.6z" fill="#454B54"/></g><circle cx="38" cy="76.5" fill="#62A3D9" r="10"/></g><path d="M89.5,14.9c3,0,5.7,1.3,7.5,3.3c1.8-2.1,4.5-3.3,7.5-3.3c5.5,0,10,4.4,10,9.8c0,3.1-1.4,5.8-3.7,7.6l0,0   L97,43L83.4,32.5l0,0c-2.4-1.8-3.9-4.6-3.9-7.8C79.5,19.3,84,14.9,89.5,14.9z" fill="#E780B3"/><g><path d="M97,46c-0.6,0-1.3-0.2-1.8-0.6L81.6,34.9c-3.2-2.4-5.1-6.1-5.1-10.1c0-7.1,5.8-12.8,13-12.8    c2.7,0,5.3,0.8,7.5,2.3c2.2-1.5,4.8-2.3,7.5-2.3c7.2,0,13,5.8,13,12.8c0,3.8-1.7,7.5-4.8,9.9L98.8,45.4C98.3,45.8,97.6,46,97,46z     M89.5,17.9c-3.9,0-7,3.1-7,6.8c0,2.1,1,4.1,2.7,5.4L97,39.2l12-9.3c1.6-1.3,2.5-3.2,2.5-5.2c0-3.8-3.2-6.8-7-6.8    c-2,0-3.9,0.9-5.2,2.3c-0.6,0.6-1.4,1-2.2,1c0,0,0,0,0,0c-0.9,0-1.7-0.4-2.2-1C93.5,18.7,91.6,17.9,89.5,17.9z" fill="#454B54"/></g></g></svg>